<svg xmlns="http://www.w3.org/2000/svg" viewBox="0 0 100 100">
  <style>
    .st0 { fill: #000000; }
  </style>
  <path class="st0" d="M50 5C27.9 5 10 22.9 10 45s17.9 40 40 40 40-17.9 40-40S72.1 5 50 5zm0 72.7c-17.8 0-32.3-14.5-32.3-32.3S32.2 13.1 50 13.1 82.3 27.6 82.3 45 67.8 77.7 50 77.7z"/>
  <path class="st0" d="M50 23.7c-11.8 0-21.3 9.5-21.3 21.3S38.2 66.3 50 66.3 71.3 56.8 71.3 45 61.8 23.7 50 23.7zm0 36.1c-8.1 0-14.7-6.6-14.7-14.7S41.9 30.3 50 30.3 64.7 36.9 64.7 45 58.1 59.8 50 59.8z"/>
</svg>